<svg width="1889" height="684" viewBox="0 0 1889 684" fill="none" xmlns="http://www.w3.org/2000/svg">
<rect width="1889" height="684" fill="black"/>
<path d="M1486.75 431.29H1449.4V257.872H1486.75V431.29Z" fill="white"/>
<path d="M1037.56 393.998C1010.27 393.998 988.142 371.87 988.142 344.575C988.142 317.292 1010.27 295.165 1037.56 295.165C1064.86 295.165 1086.99 317.292 1086.99 344.575C1086.99 371.87 1064.86 393.998 1037.56 393.998ZM1124.79 342.706C1123.99 295.203 1085.26 256.932 1037.56 256.932C989.359 256.932 950.298 296.005 950.298 344.211C950.298 392.392 989.359 431.466 1037.56 431.466C1056.14 431.466 1073.35 425.646 1087.5 415.749V431.34H1124.83V342.706H1124.79Z" fill="white"/>
<path d="M659.545 393.245C632.263 393.245 610.136 371.118 610.136 343.822C610.136 316.54 632.263 294.412 659.545 294.412C686.841 294.412 708.968 316.54 708.968 343.822C708.968 371.118 686.841 393.245 659.545 393.245ZM659.545 256.932C640.968 256.932 623.77 262.752 609.621 272.661V187H572.278V345.704H572.329C573.132 393.207 611.854 431.466 659.545 431.466C707.751 431.466 746.813 392.405 746.813 344.199C746.813 296.005 707.751 256.932 659.545 256.932Z" fill="white"/>
<path d="M848.605 295.165C868.199 295.165 885.083 306.605 893.073 323.138H804.138C812.128 306.605 828.999 295.165 848.605 295.165ZM934.881 357.407C935.533 353.105 935.872 348.689 935.872 344.211C935.872 296.005 896.799 256.932 848.605 256.932C800.412 256.932 761.338 296.005 761.338 344.211C761.338 392.392 800.412 431.466 848.605 431.466C886.437 431.466 918.637 407.394 930.742 373.714L888.557 373.576C879.576 385.932 865.05 393.998 848.605 393.998C825.751 393.998 806.583 378.468 800.926 357.407H934.881Z" fill="white"/>
<path d="M1490.77 210.82C1490.77 223.364 1480.61 233.525 1468.08 233.525C1455.54 233.525 1445.38 223.364 1445.38 210.82C1445.38 198.289 1455.54 188.129 1468.08 188.129C1480.61 188.129 1490.77 198.289 1490.77 210.82Z" fill="white"/>
<path d="M1337.04 393.997C1309.74 393.997 1287.61 371.87 1287.61 344.575C1287.61 317.292 1309.74 295.165 1337.04 295.165C1364.32 295.165 1386.45 317.292 1386.45 344.575C1386.45 371.87 1364.32 393.997 1337.04 393.997ZM1424.3 342.706H1424.25C1423.45 295.202 1384.71 256.931 1337.04 256.931C1288.83 256.931 1249.77 296.005 1249.77 344.211C1249.77 392.392 1288.83 431.466 1337.04 431.466C1355.21 431.466 1372.11 425.896 1386.08 416.376C1383.22 440.949 1362.37 460.04 1337.04 460.04V497.521C1384.71 497.521 1423.44 459.263 1424.25 411.785H1424.3V342.706Z" fill="white"/>
<path d="M1236.13 286.347V254.059H1184.37V196.182H1147.01V346.406H1147.07C1148.25 393.584 1186.82 431.466 1234.29 431.466V393.998C1206.99 393.998 1184.87 371.87 1184.87 344.575H1184.37V286.347H1236.13Z" fill="white"/>
<path d="M1601.12 393.997C1573.82 393.997 1551.7 371.87 1551.7 344.575C1551.7 317.292 1573.82 295.165 1601.12 295.165C1628.4 295.165 1650.53 317.292 1650.53 344.575C1650.53 371.87 1628.4 393.997 1601.12 393.997ZM1688.39 342.706H1688.35C1687.53 295.202 1648.81 256.931 1601.12 256.931C1552.91 256.931 1513.85 296.005 1513.85 344.211C1513.85 392.392 1552.91 431.465 1601.12 431.465C1619.31 431.465 1636.19 425.896 1650.17 416.375C1647.33 440.786 1626.75 459.752 1601.65 460.015V497.509C1649.07 497.22 1687.52 459.087 1688.35 411.784H1688.39V342.706Z" fill="white"/>
<path d="M247.093 318.948C254.82 306.216 268.819 297.711 284.799 297.711C300.78 297.711 314.767 306.216 322.494 318.948H370.775C360.84 280.689 326.156 252.466 284.799 252.466C271.553 252.466 258.997 255.351 247.708 260.544V187.351H199.678V318.948H247.093Z" fill="#FFF500"/>
<path d="M408.431 253.482C384.661 253.482 363.073 262.827 347.117 278.018C358.356 289.094 366.66 303.143 370.762 318.885L370.775 318.898C378.539 306.316 392.551 297.962 408.431 297.962C424.312 297.962 438.223 306.366 445.975 318.948H494.231C483.945 281.216 449.424 253.482 408.431 253.482Z" fill="white"/>
<path d="M493.516 366.075L493.554 364.858H446.126C438.411 377.59 424.413 386.095 408.432 386.095C392.451 386.095 378.465 377.59 370.738 364.858H322.356C332.304 403.104 367.075 431.34 408.432 431.34C421.665 431.34 434.222 428.442 445.524 423.249L446.653 422.773C440.933 440.472 424.325 453.279 404.731 453.279C402.912 453.279 401.131 453.129 399.362 452.903V497.559C401.144 497.659 402.925 497.759 404.731 497.759C453.113 497.759 492.425 459.137 493.604 411.057H493.667V366.075H493.516Z" fill="white"/>
<path d="M322.381 364.946H322.28C314.516 377.477 300.63 385.832 284.8 385.832C268.919 385.832 255.021 377.44 247.256 364.846H199C209.298 402.577 243.806 430.324 284.8 430.324C308.557 430.324 330.133 420.992 346.076 405.801C334.824 394.738 326.495 380.689 322.381 364.946Z" fill="#FFF500"/>
</svg>
