<svg width="930" height="978" viewBox="0 0 930 978" fill="none" xmlns="http://www.w3.org/2000/svg">
<rect width="930" height="978" fill="black"/>
<path d="M270.166 443.327C285.291 418.425 312.687 401.808 343.962 401.808C375.262 401.808 402.633 418.425 417.782 443.327H512.291C492.823 368.524 424.955 313.311 343.962 313.311C318.054 313.311 293.463 318.989 271.361 329.125V186H177.317V443.327H270.166Z" fill="#FFF500"/>
<path d="M586.013 315.309C539.466 315.309 497.213 333.583 465.987 363.31C487.968 384.971 504.239 412.431 512.265 443.205L512.29 443.229C527.488 418.62 554.933 402.295 586.013 402.295C617.093 402.295 644.318 418.717 659.516 443.327H754C733.849 369.572 666.274 315.309 586.013 315.309Z" fill="white"/>
<path d="M752.609 535.503L752.659 533.115H659.81C644.709 557.992 617.313 574.634 586.013 574.634C554.738 574.634 527.342 557.992 512.217 533.115H417.514C436.982 607.893 505.045 663.106 586.013 663.106C611.946 663.106 636.512 657.429 658.638 647.293L660.859 646.367C649.637 680.966 617.142 705.99 578.792 705.99C575.206 705.99 571.718 705.697 568.253 705.283V792.586C571.742 792.781 575.23 793 578.792 793C673.471 793 750.463 717.467 752.781 623.439H752.878V535.503H752.609Z" fill="white"/>
<path d="M417.563 533.261H417.344C402.146 557.773 374.969 574.123 343.963 574.123C312.883 574.123 285.657 557.7 270.459 533.091H176C196.151 606.87 263.726 661.109 343.963 661.109C390.485 661.109 432.713 642.858 463.939 613.181C441.91 591.52 425.614 564.06 417.563 533.261Z" fill="#FFF500"/>
</svg>
