<svg width="524" height="551" viewBox="0 0 524 551" fill="none" xmlns="http://www.w3.org/2000/svg">
<path d="M85.3685 233.587C99.0805 210.982 123.917 195.898 152.27 195.898C180.645 195.898 205.459 210.982 219.193 233.587H304.872C287.224 165.685 225.696 115.566 152.27 115.566C128.783 115.566 106.489 120.719 86.4518 129.92V6.10352e-05H1.1936V233.587H85.3685Z" fill="#FFF500"/>
<path d="M371.707 117.379C329.509 117.379 291.204 133.968 262.895 160.952C282.822 180.614 297.573 205.541 304.849 233.476L304.872 233.498C318.65 211.159 343.531 196.34 371.707 196.34C399.883 196.34 424.565 211.248 438.344 233.587H524C505.732 166.636 444.47 117.379 371.707 117.379Z" fill="white"/>
<path d="M522.739 317.259L522.784 315.091H438.61C424.92 337.673 400.083 352.78 371.708 352.78C343.355 352.78 318.518 337.673 304.806 315.091H218.951C236.6 382.971 298.304 433.09 371.708 433.09C395.217 433.09 417.488 427.936 437.548 418.735L439.561 417.895C429.387 449.302 399.928 472.017 365.161 472.017C361.91 472.017 358.748 471.752 355.607 471.376V550.624C358.77 550.801 361.932 551 365.161 551C450.994 551 520.794 482.435 522.895 397.082H522.983V317.259H522.739Z" fill="white"/>
<path d="M218.995 315.224H218.796C205.018 337.475 180.38 352.316 152.271 352.316C124.094 352.316 99.4125 337.408 85.634 315.069H0C18.268 382.042 79.5301 431.277 152.271 431.277C194.446 431.277 232.73 414.71 261.038 387.771C241.067 368.108 226.293 343.181 218.995 315.224Z" fill="#FFF500"/>
</svg>
