<svg width="1490" height="311" viewBox="0 0 1490 311" fill="none" xmlns="http://www.w3.org/2000/svg">
<path d="M1287.75 244.29H1250.4V70.8723H1287.75V244.29Z" fill="black"/>
<path d="M838.565 206.998C811.27 206.998 789.142 184.87 789.142 157.575C789.142 130.292 811.27 108.165 838.565 108.165C865.86 108.165 887.987 130.292 887.987 157.575C887.987 184.87 865.86 206.998 838.565 206.998ZM925.794 155.706C924.991 108.203 886.256 69.9317 838.565 69.9317C790.359 69.9317 751.298 109.005 751.298 157.211C751.298 205.392 790.359 244.466 838.565 244.466C857.142 244.466 874.352 238.646 888.502 228.749V244.34H925.832V155.706H925.794Z" fill="black"/>
<path d="M460.545 206.245C433.263 206.245 411.136 184.118 411.136 156.822C411.136 129.54 433.263 107.412 460.545 107.412C487.841 107.412 509.968 129.54 509.968 156.822C509.968 184.118 487.841 206.245 460.545 206.245ZM460.545 69.9317C441.968 69.9317 424.77 75.7518 410.621 85.6614V3.05176e-05H373.278V158.704H373.329C374.132 206.207 412.854 244.466 460.545 244.466C508.751 244.466 547.813 205.405 547.813 157.199C547.813 109.005 508.751 69.9317 460.545 69.9317Z" fill="black"/>
<path d="M649.605 108.165C669.199 108.165 686.083 119.605 694.073 136.138H605.138C613.128 119.605 629.999 108.165 649.605 108.165ZM735.881 170.407C736.533 166.105 736.872 161.689 736.872 157.211C736.872 109.005 697.799 69.9317 649.605 69.9317C601.412 69.9317 562.338 109.005 562.338 157.211C562.338 205.392 601.412 244.466 649.605 244.466C687.437 244.466 719.637 220.394 731.742 186.714L689.557 186.576C680.576 198.932 666.05 206.998 649.605 206.998C626.751 206.998 607.583 191.468 601.926 170.407H735.881Z" fill="black"/>
<path d="M1291.77 23.8203C1291.77 36.3641 1281.61 46.5246 1269.08 46.5246C1256.54 46.5246 1246.38 36.3641 1246.38 23.8203C1246.38 11.2891 1256.54 1.12881 1269.08 1.12881C1281.61 1.12881 1291.77 11.2891 1291.77 23.8203Z" fill="black"/>
<path d="M1138.04 206.997C1110.74 206.997 1088.61 184.87 1088.61 157.575C1088.61 130.292 1110.74 108.165 1138.04 108.165C1165.32 108.165 1187.45 130.292 1187.45 157.575C1187.45 184.87 1165.32 206.997 1138.04 206.997ZM1225.3 155.706H1225.25C1224.45 108.202 1185.71 69.9315 1138.04 69.9315C1089.83 69.9315 1050.77 109.005 1050.77 157.211C1050.77 205.392 1089.83 244.466 1138.04 244.466C1156.21 244.466 1173.11 238.896 1187.08 229.376C1184.22 253.949 1163.37 273.041 1138.04 273.041V310.521C1185.71 310.521 1224.44 272.263 1225.25 224.785H1225.3V155.706Z" fill="black"/>
<path d="M1037.13 99.3469V67.0591H985.365V9.18199H948.01V159.406H948.073C949.252 206.584 987.824 244.466 1035.29 244.466V206.998C1007.99 206.998 985.867 184.87 985.867 157.575H985.365V99.3469H1037.13Z" fill="black"/>
<path d="M1402.12 206.997C1374.82 206.997 1352.7 184.87 1352.7 157.575C1352.7 130.292 1374.82 108.165 1402.12 108.165C1429.4 108.165 1451.53 130.292 1451.53 157.575C1451.53 184.87 1429.4 206.997 1402.12 206.997ZM1489.39 155.706H1489.35C1488.53 108.202 1449.81 69.9313 1402.12 69.9313C1353.91 69.9313 1314.85 109.005 1314.85 157.211C1314.85 205.392 1353.91 244.465 1402.12 244.465C1420.31 244.465 1437.19 238.896 1451.17 229.375C1448.33 253.786 1427.75 272.752 1402.65 273.015V310.509C1450.07 310.22 1488.52 272.087 1489.35 224.784H1489.39V155.706Z" fill="black"/>
<path d="M48.0931 131.948C55.8201 119.216 69.8186 110.711 85.7994 110.711C101.78 110.711 115.767 119.216 123.494 131.948H171.775C161.84 93.6893 127.156 65.4658 85.7994 65.4658C72.5532 65.4658 59.9969 68.3509 48.7075 73.544V0.350983H0.677551V131.948H48.0931Z" fill="#FFF500"/>
<path d="M209.431 66.482C185.661 66.482 164.073 75.8271 148.117 91.0176C159.356 102.094 167.66 116.143 171.762 131.885L171.775 131.898C179.539 119.316 193.551 110.962 209.431 110.962C225.312 110.962 239.223 119.366 246.975 131.948H295.231C284.945 94.2161 250.424 66.482 209.431 66.482Z" fill="black"/>
<path d="M294.516 179.075L294.554 177.858H247.126C239.411 190.59 225.413 199.095 209.432 199.095C193.451 199.095 179.465 190.59 171.738 177.858H123.356C133.304 216.104 168.075 244.34 209.432 244.34C222.665 244.34 235.222 241.442 246.524 236.249L247.653 235.773C241.933 253.472 225.325 266.279 205.731 266.279C203.912 266.279 202.131 266.129 200.362 265.903V310.559C202.144 310.659 203.925 310.759 205.731 310.759C254.113 310.759 293.425 272.137 294.604 224.057H294.667V179.075H294.516Z" fill="black"/>
<path d="M123.381 177.946H123.28C115.516 190.477 101.63 198.832 85.7995 198.832C69.9191 198.832 56.021 190.44 48.2564 177.846H0C10.2985 215.577 44.8064 243.324 85.7995 243.324C109.557 243.324 131.133 233.992 147.076 218.801C135.824 207.738 127.495 193.689 123.381 177.946Z" fill="#FFF500"/>
</svg>
