<svg width="930" height="978" viewBox="0 0 930 978" fill="none" xmlns="http://www.w3.org/2000/svg">
<rect width="930" height="978" fill="white"/>
<path d="M288.368 447.587C302.081 424.982 326.917 409.898 355.27 409.898C383.645 409.898 408.459 424.982 422.193 447.587H507.872C490.224 379.685 428.696 329.566 355.27 329.566C331.783 329.566 309.489 334.719 289.452 343.92V214H204.194V447.587H288.368Z" fill="#FFF500"/>
<path d="M574.707 331.379C532.509 331.379 494.204 347.968 465.895 374.952C485.822 394.614 500.573 419.541 507.849 447.476L507.872 447.498C521.65 425.159 546.531 410.34 574.707 410.34C602.883 410.34 627.565 425.248 641.343 447.587H727C708.732 380.636 647.47 331.379 574.707 331.379Z" fill="#040606"/>
<path d="M725.739 531.259L725.784 529.091H641.609C627.919 551.673 603.083 566.78 574.708 566.78C546.355 566.78 521.518 551.673 507.806 529.091H421.951C439.6 596.971 501.304 647.09 574.708 647.09C598.217 647.09 620.488 641.936 640.548 632.735L642.561 631.895C632.387 663.302 602.928 686.017 568.161 686.017C564.91 686.017 561.747 685.752 558.607 685.376V764.624C561.77 764.801 564.932 765 568.161 765C653.994 765 723.794 696.435 725.895 611.082H725.983V531.259H725.739Z" fill="#040606"/>
<path d="M421.995 529.224H421.796C408.018 551.475 383.38 566.316 355.271 566.316C327.094 566.316 302.412 551.408 288.634 529.069H203C221.268 596.042 282.53 645.277 355.271 645.277C397.446 645.277 435.73 628.71 464.038 601.771C444.067 582.108 429.293 557.181 421.995 529.224Z" fill="#FFF500"/>
</svg>
